# xmcd
#
# Track frame offsets:
#	150
#	10198
#	22060
#	42645
#	60986
#	72355
#	86637
#	98601
#	110904
#	136283
#	145044
#	162802
#
# Disc length: 2479 seconds
#
# Revision: 0
# Processed by: cddbd v1.5.2PL0 Copyright (c) Steve Scherf et al.
# Submitted via: audiograbber 1.83.01
#
DISCID=a009ad0c
DTITLE=Herb Alpert - Coney Island
DYEAR=1975
DGENRE=Jazz
TTITLE0=Coney Island
TTITLE1=I Have Dreamed
TTITLE2=Señor Mouse
TTITLE3=Mickey
TTITLE4=Sweet Georgia Brown 
TTITLE5=Ratatouille (Coisa No. 1)
TTITLE6=Catfish
TTITLE7=This Masquerade
TTITLE8=Carmine
TTITLE9=The Crave 
TTITLE10=Vento Bravo
TTITLE11=I Belong 
EXTD=Category Blues selected because discid is already stored under category Ja
EXTD=zz (sorry, no other way)
EXTT0=
EXTT1=
EXTT2=
EXTT3=
EXTT4=
EXTT5=
EXTT6=
EXTT7=
EXTT8=
EXTT9=
EXTT10=
EXTT11=
PLAYORDER=
